# xmcd
#
# Track frame offsets: 
#        150
#        13482
#        26977
#        60337
#        75102
#        87150
#        103212
#        132612
#        144305
#        165105
#
# Disc length: 2353 seconds
#
# Revision: 0
# Processed by: cddbd v1.5.2PL0 Copyright (c) Steve Scherf et al.
# Submitted via: ExactAudioCopy v0.95b3
#
DISCID=78092f0a
DTITLE=Various Artist - Comedy For The Road - Volume 2
DYEAR=1996
DGENRE=Comedy
TTITLE0=Ben Colder - Shakey Breaky Car
TTITLE1=Johnny Goodtime - It's Me Again Margaret
TTITLE2=Ray Reeves - A Phone Call From God
TTITLE3=Red Sovine - I've Been Down That Road Before
TTITLE4=Stanley Brothers - How Far To Little Rock
TTITLE5=Rod Hart - C.B. Savage
TTITLE6=Archie Campbell - Three Little Pigs
TTITLE7=Johnny Bond - Rally Round The Table
TTITLE8=Tommy Collins - Cigarette Milner
TTITLE9=Jr. Samples - Birds, Bees, Girls And Stuff Like That
EXTD=
EXTT0=
EXTT1=
EXTT2=
EXTT3=
EXTT4=
EXTT5=
EXTT6=
EXTT7=
EXTT8=
EXTT9=
PLAYORDER=
